<svg width="32" height="32" xmlns="http://www.w3.org/2000/svg" viewBox="0 0 64 64">
  <style>
    :root{
      --team:#22c55e;
      --stroke:#0f172a;
      --iron:#64748b;
      --wood:#b45309;
      --stone:#94a3b8;
      --accent:#f59e0b;
      --glass:#cbd5e1;
    }
    .stroke{stroke:var(--stroke); stroke-width:2; stroke-linecap:round; stroke-linejoin:round;}
    .fill-team{fill:var(--team)}
    .fill-iron{fill:var(--iron)}
    .fill-wood{fill:var(--wood)}
    .fill-stone{fill:var(--stone)}
    .fill-accent{fill:var(--accent)}
    .fill-glass{fill:var(--glass)}
    .no-fill{fill:none}
  </style>
  <!-- terraced pit -->
  <ellipse class="stroke" cx="32" cy="42" rx="24" ry="12" fill="var(--stone)" fill-opacity=".35"/>
  <ellipse class="stroke" cx="32" cy="42" rx="18" ry="9" fill="var(--stone)" fill-opacity=".55"/>
  <ellipse class="stroke" cx="32" cy="42" rx="12" ry="6" fill="#e5e7eb"/>
  <!-- access ramp -->
  <path class="stroke" d="M15 40 C22 38, 26 38, 32 42" fill="none"/>
  <!-- cut stone blocks -->
  <g class="stroke" fill="#cbd5e1">
    <rect x="10" y="46" width="10" height="6"/>
    <rect x="22" y="48" width="8" height="5"/>
    <rect x="45" y="46" width="9" height="6"/>
  </g>
  <!-- derrick crane lifting a block -->
  <g class="stroke" transform="translate(44,18)">
    <path d="M-8 26 L0 6 L8 26 Z" fill="none"/>
    <line x1="0" y1="6" x2="0" y2="26"/>
    <rect x="-3" y="26" width="6" height="4" fill="#cbd5e1"/>
    <line x1="-8" y1="26" x2="8" y2="26"/>
  </g>
  <!-- debris -->
  <circle class="stroke fill-stone" cx="18" cy="52" r="1.4"/>
  <circle class="stroke fill-stone" cx="26" cy="53" r="1.2"/>
  <circle class="stroke fill-stone" cx="50" cy="52" r="1.2"/>
  <!-- edge line -->
  <path class="stroke" d="M8 54 H56"/>
</svg>

